<?xml version="1.0" encoding="utf-8"?>
<!-- Generator: Adobe Illustrator 16.0.0, SVG Export Plug-In . SVG Version: 6.00 Build 0)  -->
<!DOCTYPE svg PUBLIC "-//W3C//DTD SVG 1.1//EN" "http://www.w3.org/Graphics/SVG/1.1/DTD/svg11.dtd">
<svg version="1.1" id="Layer_1" xmlns="http://www.w3.org/2000/svg" xmlns:xlink="http://www.w3.org/1999/xlink" x="0px" y="0px"
	 width="600px" height="600px" viewBox="0 0 600 600" enable-background="new 0 0 600 600" xml:space="preserve">
<path d="M130.476,284.194c0,7.124-4.412,12.414-13.239,15.888c-6.857,2.707-15.214,4.074-25.081,4.074H51.694
	c-10.609,0-19.517-1.234-26.756-3.673C14.99,297.14,10,291.803,10,284.456V245.18c0-7.058,5.07-12.267,15.244-15.649
	c8.03-2.527,16.884-3.805,26.589-3.805h16.063c4.333,0,6.496,1.931,6.496,5.805c0,3.89-2.162,5.844-6.496,5.844h-4.906
	c-0.468,0-0.737-0.016-0.792-0.064c-1.233-0.039-2.331-0.058-3.291-0.081c-0.959-0.025-1.752-0.046-2.327-0.046
	c-19.165,0-28.759,2.656-28.759,7.97v39.242c0,5.321,8.032,7.981,24.096,7.981h40.263c3.837,0,7.95-0.57,12.281-1.736
	c5.453-1.464,8.194-3.425,8.194-5.933v-8.348H87.617c-3.302,0-6.006-2.825-6.006-6.28c0-3.46,2.704-6.286,6.006-6.286h30.107
	c1.52-0.155,3.703-0.142,6.502-0.142c4.165,0,6.248,1.673,6.248,5.036L130.476,284.194"/>
<path d="M235.603,284.591v-23.77c0-4.887-6.908-7.396-20.886-7.396h-27.634c-5.098,0-9.705,0.53-13.815,1.587
	c-5.756,1.59-8.554,3.833-8.554,6.869v22.71c0,2.905,2.962,5.151,8.717,6.473c3.948,0.922,8.553,1.326,13.817,1.326h27.469
	c4.439,0,8.715-0.531,12.661-1.458C232.809,289.48,235.603,287.364,235.603,284.591 M252.706,284.591
	c0,7.133-4.274,12.279-12.996,15.457c-6.081,2.509-14.308,3.829-24.504,3.829h-28.123c-9.376,0-17.763-1.321-25.331-3.829
	c-9.374-3.306-13.979-8.456-13.979-15.457v-22.71c0-6.869,4.604-12.146,13.818-15.709c6.905-2.778,15.289-4.098,25.328-4.098h28.286
	c25,0,37.5,6.473,37.5,19.678V284.591z"/>
<path d="M457.718,248.407c0,3.433-2.634,5.151-7.566,5.151c-0.655,0-1.643,0-2.959-0.137h-3.124
	c-12.998,0-19.415,2.512-19.415,7.796v37.504c0,2.512-1.312,4.095-3.61,4.755c-0.991,0.265-3.453,0.396-7.398,0.396
	c-3.948,0-5.923-1.72-5.923-5.15V261.22c0-8.189,5.101-13.604,15.464-16.506c6.252-1.853,15.623-2.643,28.13-2.643
	C455.585,242.071,457.718,244.183,457.718,248.407"/>
<path d="M557.258,284.591v-23.77c0-4.887-6.91-7.396-20.888-7.396h-27.634c-5.101,0-9.701,0.53-13.815,1.587
	c-5.757,1.59-8.553,3.833-8.553,6.869v22.71c0,2.905,2.962,5.151,8.715,6.473c3.952,0.922,8.551,1.326,13.805,1.326h27.475
	c4.44,0,8.711-0.531,12.659-1.458C554.459,289.48,557.258,287.364,557.258,284.591 M574.36,284.591
	c0,7.133-4.277,12.279-12.991,15.457c-6.086,2.509-14.313,3.829-24.507,3.829h-28.125c-9.377,0-17.763-1.321-25.323-3.829
	c-9.382-3.306-13.988-8.456-13.988-15.457v-22.71c0-6.869,4.598-12.146,13.808-15.709c6.914-2.778,15.299-4.098,25.335-4.098h28.286
	c24.995,0,37.5,6.473,37.5,19.678v22.84L574.36,284.591L574.36,284.591z"/>
<path d="M374.588,254.173v-10.701c0-4.489-7.749-6.869-23.237-6.869h-63.13v27.21h63.13
	C366.839,263.813,374.588,260.511,374.588,254.173 M392.389,254.698c0,7.793-4.94,13.472-14.666,17.044
	c-7.583,2.507-16.658,3.696-27.359,3.696h-62.143v22.988c0,2.507-1.154,4.09-3.796,4.748c-0.653,0.265-3.296,0.397-7.749,0.397
	c-4.118,0-6.265-1.717-6.265-5.148v-68.423c0-3.308,2.142-5.024,6.265-5.024h74.503c10.056,0,18.627,1.188,25.709,3.307
	c10.387,3.166,15.494,7.921,15.494,14.135v12.279L392.389,254.698L392.389,254.698z"/>
<path d="M202.246,349.646c-0.755,3.166-0.171,6.874,0.577,8.257c0.744,1.377,3.18,2.607,5.029,2.607c1.896,0,4.598-0.896,5.96-2.243
	c1.367-1.347,3.258-4.581,4.092-8.085c0.714-2.95,0.179-5.759-0.579-7.122c-0.765-1.357-3.031-3.182-4.904-3.182
	c-1.779,0-4.657,0.819-6.07,2.201C204.946,343.456,203.014,346.457,202.246,349.646 M194.119,349.919
	c1.23-5.114,4.343-9.352,7.628-12.193c3.291-2.852,7.508-3.423,12.152-3.423c4.765,0,8.25,1.951,10.16,4.758
	c1.904,2.794,2.952,6.613,1.743,11.656c-0.878,3.666-2.371,6.576-4.054,8.91c-1.687,2.343-4.007,3.815-6.444,5.124
	c-2.445,1.307-5.349,1.604-8.528,1.604c-3.23,0-5.771-0.559-7.62-1.692c-1.842-1.126-3.977-2.902-4.711-5.346
	C193.717,356.881,193.238,353.584,194.119,349.919"/>
<path d="M161.618,365.417l6.771-30.633l14.043,0.05c0.301,0,10.35-0.513,9.855,7.992c-0.354,6.188-3.07,6.88-8.525,9.756
	c2.743,4.565,3.69,7.021,7.32,12.831h-9.147c-1.014-2.902-5.374-11.108-5.397-11.108l-4.733-0.051l-2.405,11.207L161.618,365.417
	 M173.323,348.735h5.386c4.996,0,7.374-7.84,2.184-7.921l-5.637-0.105L173.323,348.735z"/>
<polygon points="141.862,334.884 163.919,334.986 162.766,340.624 148.522,340.724 147.234,346.156 160.498,346.205 159.26,352.044 
	145.693,352.044 144.112,359.816 158.182,359.571 157.329,365.511 134.998,365.261 "/>
<polygon points="108.793,334.784 116.837,334.834 114.105,345.998 125.679,346.3 128.162,334.884 136.148,334.986 129.178,365.417 
	121.243,365.462 124.288,352.089 112.707,351.991 109.515,365.462 101.619,365.417 "/>
<polygon points="226.053,365.372 233.366,365.372 235.383,357.399 228.068,357.399 "/>
<rect x="255.378" y="323.172" fill="#00AEEF" width="67.812" height="51.852"/>
<rect x="337.172" y="323.172" fill="#00AEEF" width="67.81" height="51.852"/>
<rect x="419.499" y="323.168" fill="#005DAC" width="67.805" height="51.847"/>
<rect x="503.56" y="323.172" fill="#FFFFFF" stroke="#000000" stroke-width="0.5" stroke-miterlimit="10" width="67.809" height="51.852"/>
<path d="M38.563,350.858c2.554-0.487,3.923-2.638,4.039-6.501c-0.276-4.591-2.81-7.019-7.61-7.327
	c-5.077,0.017-10.146,0.032-15.046,0.108v28.256h16.391c4.447,0.297,6.709-2.206,6.788-7.438
	C43.323,354.299,41.817,351.912,38.563,350.858z M25.39,341.892c2.947,0.1,5.717,0.137,8.605,0.116
	c1.833,0.371,2.808,1.565,2.922,3.639c0.021,2.277-1.089,3.434-3.393,3.396c-2.651,0-5.313,0-8.136,0.059L25.39,341.892
	L25.39,341.892z M34.101,360.937c-2.841,0-5.688,0-8.711,0.058v-7.849c3.158,0.106,6.125,0.144,9.211,0.127
	c1.968,0.405,3.013,1.708,3.138,3.961C37.76,359.725,36.568,360.982,34.101,360.937z"/>
<path d="M57.709,359.129c0.037,2.264-0.782,3.203-2.517,3.047c-1.021,0-2.032,0-2.989,0.054c-2.614,0.113-3.671-1.87-3.103-5.975
	h13.461v-4.166c0-3.642-3.026-6.628-6.729-6.628h-4.978c-3.705,0-6.734,2.983-6.726,6.632v7.153c0,3.644,3.026,6.625,6.729,6.625
	h4.978c3.699,0,6.73-2.981,6.73-6.625v-0.117H57.709z M53.608,349.048c3.005-0.086,4.352,1.381,4.097,4.444
	c-2.873-0.054-5.736-0.054-8.604,0.063C48.766,350.529,50.267,349.024,53.608,349.048z"/>
<path d="M85.06,345.653c-2.494-0.066-4.955-0.066-7.416-0.066c-3.068,0.863-4.445,2.819-4.234,5.901h5.251
	c-0.058-1.806,1.23-2.721,3.821-2.711c2.146,0.046,3.347,0.734,3.592,2.029c0,1.674,0.032,3.245,0.069,4.812
	c-1.152-1.347-3.3-2.125-6.434-2.339c-4.964,0.466-7.359,2.756-7.177,6.883c0.178,3.605,2.755,5.521,7.717,5.725
	c2.607,0.121,4.596-0.653,5.99-2.402c0.037,0.755,0.037,1.441,0.037,2.129h4.839c0.037-5.231,0.037-10.43,0.037-15.626
	C89.935,347.272,87.892,345.831,85.06,345.653z M84.311,362.361c-4.007,0.975-6.229,0.371-6.707-1.706
	c-0.426-1.648,0.277-2.866,2.11-3.668c3.313-0.591,5.45-0.009,6.429,1.717C86.375,360.572,85.769,361.777,84.311,362.361z"/>
<path d="M583.477,297.603c-3.587,0-6.507,2.925-6.507,6.519c0,3.591,2.92,6.513,6.507,6.513c3.597,0,6.523-2.922,6.523-6.513
	C590,300.527,587.073,297.603,583.477,297.603z M583.477,309.919c-3.195,0-5.793-2.601-5.793-5.799c0-3.199,2.598-5.805,5.793-5.805
	c3.205,0,5.81,2.604,5.81,5.805C589.286,307.319,586.682,309.919,583.477,309.919z"/>
<path d="M585.877,305.271c-0.231-0.361-0.488-0.665-0.759-0.91c-0.117-0.114-0.299-0.229-0.544-0.341
	c0.655-0.098,1.149-0.299,1.466-0.635c0.313-0.339,0.468-0.747,0.468-1.233c0-0.375-0.096-0.723-0.278-1.025
	c-0.206-0.312-0.449-0.526-0.772-0.651c-0.312-0.125-0.774-0.178-1.387-0.178h-3.046v6.832l0.911-0.002v-3.031h1.05
	c0.238,0,0.408,0.014,0.51,0.03c0.146,0.028,0.278,0.095,0.412,0.178c0.128,0.084,0.292,0.235,0.464,0.461
	c0.167,0.214,0.386,0.529,0.653,0.937l0.908,1.431h1.141L585.877,305.271z M583.885,303.306h-1.954v-2.264h2.174
	c0.515,0,0.886,0.106,1.119,0.314c0.236,0.204,0.348,0.476,0.348,0.793c0,0.225-0.053,0.431-0.174,0.621
	c-0.123,0.181-0.301,0.322-0.535,0.405C584.624,303.267,584.302,303.306,583.885,303.306z"/>
</svg>
